<?xml version="1.0" encoding="UTF-8" standalone="no"?>
<!DOCTYPE svg PUBLIC "-//W3C//DTD SVG 1.1//EN" "http://www.w3.org/Graphics/SVG/1.1/DTD/svg11.dtd">
<svg width="100%" height="100%" viewBox="0 0 400 400" version="1.1" xmlns="http://www.w3.org/2000/svg" xmlns:xlink="http://www.w3.org/1999/xlink" xml:space="preserve" xmlns:serif="http://www.serif.com/" style="fill-rule:evenodd;clip-rule:evenodd;stroke-linejoin:round;stroke-miterlimit:2;">
    <g transform="matrix(1,0,0,1,-287.016,-341.214)">
        <g transform="matrix(1,0,0,1,-12.9844,41.2135)">
            <g transform="matrix(0.972306,0,0,0.887807,4.59727,25.8956)">
                <rect x="303.817" y="308.743" width="411.393" height="450.548" style="fill:rgb(0,6,108);"/>
            </g>
            <g transform="matrix(2.06417,0,0,2.06417,-348.123,-349.997)">
                <path d="M395.905,508.677C391.84,500.943 389.548,492.137 389.548,482.799C389.548,451.922 414.617,426.853 445.494,426.853C476.372,426.853 501.44,451.922 501.44,482.799C501.44,492.137 499.148,500.943 495.084,508.677L395.905,508.677Z" style="fill:rgb(255,213,0);"/>
            </g>
            <g transform="matrix(1.09664,0,0,1.09664,-8.13211,74.8993)">
                <circle cx="445.494" cy="482.799" r="55.946" style="fill:rgb(255,0,226);"/>
            </g>
            <g transform="matrix(1.42486,0,0,1.42486,-70.7351,-262.022)">
                <circle cx="445.494" cy="482.799" r="55.946" style="fill:rgb(255,0,226);"/>
            </g>
            <g transform="matrix(0.638595,0,0,0.638595,315.266,114.746)">
                <circle cx="445.494" cy="482.799" r="55.946" style="fill:rgb(255,213,0);"/>
            </g>
            <g transform="matrix(0.638595,0,0,0.638595,135.754,64.3817)">
                <circle cx="445.494" cy="482.799" r="55.946" style="fill:rgb(255,213,0);"/>
            </g>
        </g>
    </g>
</svg>
